<svg width="82" height="26" viewBox="0 0 82 26" fill="none" xmlns="http://www.w3.org/2000/svg">
<path d="M14.444 16.576H17.36V18.88H14.084L13.328 25H10.772L11.564 18.88H6.344L5.516 25H2.96L3.752 18.88H0.908V16.576H4.04L5.156 8.584H2.24V6.208H5.444L6.272 0.196H8.828L8 6.208H13.256L14.084 0.196H16.64L15.812 6.208H18.692V8.584H15.488L14.444 16.576ZM11.852 16.576L12.968 8.584H7.676L6.632 16.576H11.852Z" fill="#2F6C8F"/>
<path d="M37.0019 5.632C37.7699 5.632 38.6579 5.764 39.6659 6.028L39.2339 12.472H36.7859V8.404H36.6059C33.6779 8.404 31.6019 10.492 30.3779 14.668V22.66H34.2299V25H24.3659V22.66H27.3539V8.368H24.3659V6.028H29.6219L30.1979 10.528C30.9659 8.896 31.8779 7.672 32.9339 6.856C34.0139 6.04 35.3699 5.632 37.0019 5.632ZM52.2519 22.912C53.6919 22.912 54.8319 22.636 55.6719 22.084C56.5119 21.532 56.9319 20.8 56.9319 19.888C56.9319 19.264 56.8239 18.76 56.6079 18.376C56.3919 17.968 55.9599 17.608 55.3119 17.296C54.6639 16.96 53.6799 16.624 52.3599 16.288C50.1519 15.736 48.5199 15.076 47.4639 14.308C46.4079 13.516 45.8799 12.352 45.8799 10.816C45.8799 9.232 46.5399 7.972 47.8599 7.036C49.1799 6.1 50.9199 5.632 53.0799 5.632C55.7199 5.632 58.0239 6.328 59.9919 7.72L58.6239 9.808C57.8319 9.256 57.0039 8.836 56.1399 8.548C55.2759 8.236 54.2799 8.08 53.1519 8.08C50.4159 8.08 49.0479 8.908 49.0479 10.564C49.0479 11.14 49.1919 11.608 49.4799 11.968C49.7919 12.328 50.2839 12.652 50.9559 12.94C51.6519 13.204 52.6839 13.528 54.0519 13.912C56.1159 14.464 57.6519 15.172 58.6599 16.036C59.6919 16.876 60.2079 18.112 60.2079 19.744C60.2079 21.64 59.4399 23.056 57.9039 23.992C56.3679 24.928 54.4839 25.396 52.2519 25.396C49.2759 25.396 46.8039 24.544 44.8359 22.84L46.5279 20.86C47.2959 21.484 48.1719 21.988 49.1559 22.372C50.1399 22.732 51.1719 22.912 52.2519 22.912ZM73.8378 22.912C75.2778 22.912 76.4178 22.636 77.2578 22.084C78.0978 21.532 78.5178 20.8 78.5178 19.888C78.5178 19.264 78.4098 18.76 78.1938 18.376C77.9778 17.968 77.5458 17.608 76.8978 17.296C76.2498 16.96 75.2658 16.624 73.9458 16.288C71.7378 15.736 70.1058 15.076 69.0498 14.308C67.9938 13.516 67.4658 12.352 67.4658 10.816C67.4658 9.232 68.1258 7.972 69.4458 7.036C70.7658 6.1 72.5058 5.632 74.6658 5.632C77.3058 5.632 79.6098 6.328 81.5778 7.72L80.2098 9.808C79.4178 9.256 78.5898 8.836 77.7258 8.548C76.8618 8.236 75.8658 8.08 74.7378 8.08C72.0018 8.08 70.6338 8.908 70.6338 10.564C70.6338 11.14 70.7778 11.608 71.0658 11.968C71.3778 12.328 71.8698 12.652 72.5418 12.94C73.2378 13.204 74.2698 13.528 75.6378 13.912C77.7018 14.464 79.2378 15.172 80.2458 16.036C81.2778 16.876 81.7938 18.112 81.7938 19.744C81.7938 21.64 81.0258 23.056 79.4898 23.992C77.9538 24.928 76.0698 25.396 73.8378 25.396C70.8618 25.396 68.3898 24.544 66.4218 22.84L68.1138 20.86C68.8818 21.484 69.7578 21.988 70.7418 22.372C71.7258 22.732 72.7578 22.912 73.8378 22.912Z" fill="#343434"/>
</svg>
