<svg xmlns="http://www.w3.org/2000/svg" xmlns:xlink="http://www.w3.org/1999/xlink" width="100" height="100" viewBox="0 0 100 100"><g><g transform="translate(50 50) scale(0.69 0.69) rotate(0) translate(-50 -50)" style="fill:#2f6c8f"><svg fill="#2f6c8f" xmlns="http://www.w3.org/2000/svg" xmlns:xlink="http://www.w3.org/1999/xlink" version="1.1" x="0px" y="0px" viewBox="0 0 100 100" enable-background="new 0 0 100 100" xml:space="preserve"><path d="M13.3,11.2c1.2,0,2.1,0.9,2.1,2.1s-0.9,2.1-2.1,2.1s-2.1-0.9-2.1-2.1S12.1,11.2,13.3,11.2z M19.5,11.2  c1.2,0,2.1,0.9,2.1,2.1s-0.9,2.1-2.1,2.1s-2.1-0.9-2.1-2.1S18.3,11.2,19.5,11.2z M25.8,11.2c1.2,0,2.1,0.9,2.1,2.1s-0.9,2.1-2.1,2.1  s-2.1-0.9-2.1-2.1S24.6,11.2,25.8,11.2z M8.5,21.3h83.9c1.1,0,1.9-0.9,1.9-1.9c0-1.1-0.9-1.9-1.9-1.9H8.5c-1.1,0-1.9,0.9-1.9,1.9  S7.5,21.3,8.5,21.3 M54.9,73.7l-1.4-1.4L37.7,88.2V73.7c0-0.5-0.2-1-0.6-1.4c-0.4-0.4-0.9-0.6-1.4-0.6H12.9c-1.1,0-2-0.4-2.7-1.1  C9.5,69.9,9,69,9,67.9v-55c0-1.1,0.4-2,1.1-2.7C10.9,9.5,11.8,9,12.9,9h74.2c1.1,0,2,0.4,2.7,1.1c0.7,0.7,1.1,1.7,1.1,2.7v55  c0,1.1-0.4,2-1.1,2.7s-1.7,1.1-2.7,1.1H54.9c-0.5,0-1,0.2-1.4,0.6L54.9,73.7v1.9h32.2c2.1,0,4-0.9,5.4-2.3s2.3-3.3,2.3-5.4v-55  c0-2.1-0.9-4-2.3-5.4s-3.3-2.3-5.4-2.3H12.9c-2.1,0-4,0.9-5.4,2.3s-2.3,3.3-2.3,5.4v55c0,2.1,0.9,4,2.3,5.4s3.3,2.3,5.4,2.3h20.9  v17.3c0,0.8,0.5,1.5,1.2,1.8s1.5,0.1,2.1-0.4L56.3,75L54.9,73.7v1.9V73.7z M51.7,65.1V67h32.9c0.5,0,1-0.2,1.4-0.6s0.6-0.9,0.6-1.4  V37.4c0-0.5-0.2-1-0.6-1.4s-0.9-0.6-1.4-0.6H51.7c-0.5,0-1,0.2-1.4,0.6c-0.4,0.4-0.6,0.9-0.6,1.4v27.8c0,0.5,0.2,1,0.6,1.4  c0.4,0.4,0.9,0.6,1.4,0.6V65.1h1.9V39.3h29v23.9H51.7V65.1h1.9H51.7z M84.6,26.2H15.3c-1.1,0-1.9,0.9-1.9,1.9c0,1.1,0.9,1.9,1.9,1.9  h69.2c1.1,0,1.9-0.9,1.9-1.9C86.5,27.1,85.6,26.2,84.6,26.2 M43.2,35.5H15.3c-1.1,0-1.9,0.9-1.9,1.9c0,1.1,0.9,1.9,1.9,1.9h27.8  c1.1,0,1.9-0.9,1.9-1.9C45.1,36.3,44.2,35.5,43.2,35.5 M43.2,44.7H15.3c-1.1,0-1.9,0.9-1.9,1.9c0,1.1,0.9,1.9,1.9,1.9h27.8  c1.1,0,1.9-0.9,1.9-1.9C45.1,45.6,44.2,44.7,43.2,44.7 M43.2,54H15.3c-1.1,0-1.9,0.9-1.9,1.9c0,1.1,0.9,1.9,1.9,1.9h27.8  c1.1,0,1.9-0.9,1.9-1.9C45.1,54.8,44.2,54,43.2,54 M43.2,63.2H15.3c-1.1,0-1.9,0.9-1.9,1.9c0,1.1,0.9,1.9,1.9,1.9h27.8  c1.1,0,1.9-0.9,1.9-1.9C45.1,64.1,44.2,63.2,43.2,63.2"></path></svg></g></g></svg>