<?xml version="1.0" standalone="no"?>
<!DOCTYPE svg PUBLIC "-//W3C//DTD SVG 20010904//EN"
 "http://www.w3.org/TR/2001/REC-SVG-20010904/DTD/svg10.dtd">
<svg version="1.0" xmlns="http://www.w3.org/2000/svg"
 width="700.000000pt" height="700.000000pt" viewBox="0 0 700.000000 700.000000"
 preserveAspectRatio="xMidYMid meet">
<metadata>
Created by potrace 1.11, written by Peter Selinger 2001-2013
</metadata>
<g transform="translate(0.000000,700.000000) scale(0.100000,-0.100000)"
fill="#000000" stroke="none">
<path d="M1660 5658 c-74 -9 -138 -39 -197 -92 -51 -46 -105 -135 -119 -196
-10 -47 -12 -2720 -1 -2789 15 -104 79 -198 177 -261 84 -54 103 -56 673 -55
l524 0 0 -431 c0 -389 2 -433 17 -456 25 -37 69 -51 109 -34 18 8 231 214 481
465 248 248 452 451 455 452 3 1 362 2 796 3 868 3 824 0 918 64 74 52 123
116 152 198 17 46 18 140 19 1409 1 748 -2 1384 -7 1414 -21 140 -147 274
-287 307 -43 9 -3633 12 -3710 2z m3695 -191 c46 -18 71 -39 96 -81 20 -34 22
-52 24 -177 l1 -139 -1978 0 -1978 0 0 133 c0 173 13 203 114 259 29 16 153
17 1861 17 1376 0 1838 -3 1860 -12z m116 -586 c1 -3 2 -512 3 -1131 3 -1219
4 -1187 -51 -1238 -61 -57 -15 -54 -905 -55 l-819 -2 -394 -397 c-217 -219
-395 -392 -396 -385 -1 6 -2 165 -3 352 -1 187 -6 351 -10 365 -10 29 -24 43
-50 53 -11 4 -278 8 -594 8 -490 0 -580 2 -611 15 -46 19 -78 49 -102 96 -18
36 -19 76 -19 1181 l0 1143 1975 0 c1086 0 1976 -2 1976 -5z"/>
<path d="M1713 5372 c-36 -4 -80 -43 -85 -75 -15 -89 65 -150 146 -112 100 48
51 199 -61 187z"/>
<path d="M2008 5372 c-31 -4 -74 -44 -80 -75 -13 -69 44 -133 112 -123 50 8
90 54 85 101 -6 67 -52 105 -117 97z"/>
<path d="M2293 5365 c-58 -25 -79 -85 -49 -144 46 -89 185 -51 186 51 0 70
-73 120 -137 93z"/>
<path d="M1782 4637 c-55 -31 -64 -100 -18 -145 l26 -26 1700 0 c1698 0 1700
0 1727 21 55 40 51 121 -7 150 -37 19 -3394 18 -3428 0z"/>
<path d="M3542 4196 c-25 -14 -52 -47 -53 -65 -6 -85 -3 -1373 4 -1393 20 -63
-38 -59 871 -59 903 1 871 -1 894 58 8 19 11 235 11 707 -1 731 0 719 -52 748
-28 16 -1646 20 -1675 4z m1518 -182 c13 -3 15 -76 15 -576 l-1 -573 -699 0
-700 0 -1 570 c-1 314 0 573 2 576 4 7 1360 10 1384 3z"/>
<path d="M1768 4180 c-48 -37 -44 -113 7 -146 24 -16 82 -17 720 -17 637 0
696 1 720 17 54 36 58 118 6 149 -27 16 -86 17 -729 17 -681 0 -700 -1 -724
-20z"/>
<path d="M1788 3748 c-66 -22 -72 -130 -9 -163 41 -21 1390 -21 1431 0 55 29
62 120 12 153 -24 16 -85 17 -718 17 -380 1 -702 -3 -716 -7z"/>
<path d="M1784 3296 c-69 -30 -65 -140 5 -164 15 -5 337 -8 716 -8 745 1 720
-1 744 53 17 38 13 70 -13 100 l-24 28 -699 2 c-564 2 -704 -1 -729 -11z"/>
<path d="M1808 2858 c-73 -15 -99 -108 -43 -155 25 -22 34 -23 203 -23 97 0
274 0 392 -1 857 -1 837 -1 865 24 17 14 28 36 31 62 5 35 2 44 -25 69 l-30
29 -680 1 c-374 1 -695 -2 -713 -6z"/>
</g>
</svg>
